<svg width="518" height="203" viewBox="0 0 518 203" fill="none" xmlns="http://www.w3.org/2000/svg">
<path d="M49.0215 155.778C19.976 155.778 0 135.667 0 104.381V67.6509H98.0333V104.381C98.0333 135.667 78.2112 155.778 49.0215 155.778ZM20.6685 102.852C20.6685 120.866 30.9979 131.484 49.0215 131.484C67.0354 131.484 77.6534 120.866 77.6534 102.852V91.5413H20.6685V102.852Z" fill="#2D2D2D"/>
<path d="M152.229 62.6978C176.254 62.6978 188.257 76.528 188.257 93.561C188.257 105.852 181.554 117.442 166.473 121.914L189.094 160.741H162.145L141.756 123.732H136.033V160.741H112.152V62.6978H152.229ZM150.835 82.5295H136.033V106.833H150.835C159.77 106.833 163.963 102.227 163.963 94.542C163.953 87.2806 159.77 82.5295 150.835 82.5295Z" fill="#2D2D2D"/>
<path d="M203.202 62.6978H227.083V160.731H203.202V62.6978Z" fill="#2D2D2D"/>
<path d="M332.109 62.6978V160.731H308.228L268.286 100.265V160.731H244.405V62.6978H268.286L308.228 123.443V62.6978H332.109Z" fill="#2D2D2D"/>
<path d="M373.301 117.442V160.731H349.42V62.6978H373.301V105.708L405.982 62.6978H434.056L396.066 110.738L435.45 160.731H406.261L373.301 117.442Z" fill="#2D2D2D"/>
<path d="M482.241 161.712C461.149 161.712 444.674 151.238 443.972 131.407H469.391C470.093 138.947 474.835 142.582 481.538 142.582C488.521 142.582 492.993 139.091 492.993 133.369C492.993 115.21 443.972 124.992 444.251 90.214C444.251 71.6423 459.475 61.3032 480 61.3032C501.37 61.3032 515.749 71.9212 516.73 90.6276H490.896C490.473 84.3472 486.011 80.5771 479.586 80.4329C473.863 80.2886 469.535 83.222 469.535 89.3677C469.535 106.41 517.999 98.7257 517.999 131.541C517.99 148.026 505.14 161.712 482.241 161.712Z" fill="#2D2D2D"/>
<path d="M48.4255 14.1766C48.4255 14.1766 48.5313 14.3401 48.7236 14.6383C48.9064 14.9557 49.1564 15.4366 49.368 16.129C49.8104 17.4947 49.9932 19.7645 49.2334 22.3421C48.8679 23.6308 48.3101 24.9869 47.5214 26.3334C46.752 27.6799 45.8383 28.9398 44.9054 30.1613C43.9629 31.3827 43.0203 32.5465 42.1932 33.6525C41.3661 34.7874 40.7121 35.7684 40.1639 36.884C39.029 39.1057 38.3365 41.5101 38.0768 43.828C37.8268 46.1266 38.0672 48.4253 38.5962 50.4065C39.1059 52.3974 39.8753 54.0324 40.4909 55.1577C40.7986 55.7251 41.0679 56.1675 41.2603 56.4561C41.4526 56.7542 41.5488 56.9177 41.5488 56.9177C41.5488 56.9177 41.3661 56.8696 41.0198 56.7831C40.664 56.6965 40.1639 56.533 39.5195 56.2637C38.2403 55.7347 36.4034 54.7441 34.5568 52.8591C32.7198 51.0028 30.8924 48.1752 30.123 44.5013C29.3632 40.8754 29.7191 36.5378 31.7292 32.6042C32.7102 30.6229 34.1143 28.911 35.4512 27.6126C36.7977 26.3046 38.1345 25.3043 39.3367 24.4387C41.77 22.7075 43.6455 21.5053 45.0785 20.0723C46.5308 18.6873 47.4349 17.2543 47.8869 16.1002C48.1177 15.5231 48.2428 15.0326 48.3197 14.696C48.387 14.3594 48.4255 14.1766 48.4255 14.1766Z" fill="#2D2D2D"/>
<path d="M51.5108 42.7411C51.5108 42.7411 51.405 42.5776 51.2126 42.2795C51.0299 41.9621 50.7799 41.4812 50.5683 40.7887C50.1258 39.423 49.9431 37.1532 50.7029 34.5757C51.0684 33.2869 51.6262 31.9308 52.4148 30.5843C53.1843 29.2378 54.0979 27.9779 55.0309 26.7565C55.9734 25.535 56.9159 24.3713 57.7431 23.2652C58.5702 22.1303 59.2242 21.1494 59.7724 20.0337C60.9073 17.812 61.5998 15.4076 61.8594 13.0897C62.1095 10.7911 61.8691 8.49245 61.3401 6.51121C60.8303 4.52034 60.0609 2.88533 59.4454 1.76006C59.1376 1.19261 58.8683 0.750192 58.676 0.46166C58.4836 0.163512 58.3875 0 58.3875 0C58.3875 0 58.5702 0.0481026 58.9164 0.134662C59.2723 0.221221 59.7724 0.384731 60.4168 0.654026C61.6959 1.183 63.5329 2.1736 65.3795 4.05867C67.2165 5.91489 69.0439 8.7425 69.8133 12.4165C70.5731 16.0423 70.2172 20.3799 68.2071 24.3136C67.2261 26.2948 65.8219 28.0068 64.4851 29.3052C63.1386 30.6132 61.8017 31.6134 60.5995 32.479C58.1662 34.2102 56.2908 35.4124 54.8578 36.8455C53.4055 38.2304 52.5014 39.6634 52.0494 40.8175C51.8185 41.3946 51.6935 41.8851 51.6166 42.2218C51.5493 42.5584 51.5108 42.7411 51.5108 42.7411Z" fill="#2D2D2D"/>
<path d="M28.2939 181.688H31.1985L35.7573 199.404L40.797 181.688H43.8554L48.6546 199.346L53.2423 181.688H56.1853L50.1261 202.587H47.0677L42.2108 185.766L37.1711 202.587L34.1415 202.616L28.2939 181.688Z" fill="#2D2D2D"/>
<path d="M97.3111 197.932H88.1935L86.5105 202.577H83.6348L91.1943 181.803H94.3392L101.86 202.577H98.9846L97.3111 197.932ZM92.7523 185.159L88.9726 195.71H96.5321L92.7523 185.159Z" fill="#2D2D2D"/>
<path d="M137.696 181.688C142.611 181.688 144.948 184.419 144.948 187.833C144.948 190.498 143.476 193.046 139.976 193.835L145.227 202.587H141.957L136.984 194.047H133.686V202.587H130.954V181.688H137.696ZM137.696 183.938H133.676V191.854H137.696C140.783 191.854 142.13 190.171 142.13 187.833C142.13 185.468 140.812 183.938 137.696 183.938Z" fill="#2D2D2D"/>
<path d="M174.896 181.688H177.627V194.912C177.627 198.75 179.695 200.404 182.782 200.404C185.869 200.404 187.908 198.759 187.908 194.912V181.688H190.64V194.883C190.64 200.308 187.072 202.799 182.753 202.799C178.435 202.799 174.896 200.308 174.896 194.883V181.688Z" fill="#2D2D2D"/>
<path d="M237.412 181.659V202.587H234.681L223.707 185.948V202.587H220.976V181.659H223.707L234.681 198.269V181.659H237.412Z" fill="#2D2D2D"/>
<path d="M286.934 187.747H283.664C282.529 185.314 280.249 183.909 277.306 183.909C272.901 183.909 269.603 187.083 269.603 192.123C269.603 197.134 272.901 200.308 277.306 200.308C281.413 200.308 284.231 197.672 284.654 193.537H276.316V191.315H287.559V193.412C287.078 198.596 282.971 202.77 277.306 202.77C271.43 202.77 266.813 198.394 266.813 192.123C266.813 185.862 271.43 181.447 277.306 181.447C281.721 181.447 285.376 183.727 286.934 187.747Z" fill="#2D2D2D"/>
<path d="M353.46 193.046V202.578H350.729V181.678H353.46V191.363L362.097 181.678H365.54L356.066 192.142L365.626 202.578H362.058L353.46 193.046Z" fill="#2D2D2D"/>
<path d="M403.952 202.789C398.075 202.789 393.459 198.384 393.459 192.113C393.459 185.852 398.075 181.438 403.952 181.438C409.857 181.438 414.445 185.842 414.445 192.113C414.445 198.384 409.857 202.789 403.952 202.789ZM403.952 200.423C408.357 200.423 411.656 197.211 411.656 192.113C411.656 186.987 408.357 183.813 403.952 183.813C399.547 183.813 396.248 186.987 396.248 192.113C396.248 197.22 399.547 200.423 403.952 200.423Z" fill="#2D2D2D"/>
<path d="M450.57 193.854H446.55V202.578H443.818V181.678H450.56C455.475 181.678 457.783 184.381 457.783 187.795C457.793 190.979 455.754 193.854 450.57 193.854ZM450.57 191.613C453.686 191.613 455.004 190.142 455.004 187.805C455.004 185.371 453.686 183.938 450.57 183.938H446.55V191.613H450.57Z" fill="#2D2D2D"/>
<path d="M486.963 181.688H489.694V202.587H486.963V181.688Z" fill="#2D2D2D"/>
</svg>
